<svg width="240" height="160" viewBox="0 0 240 160" fill="none" xmlns="http://www.w3.org/2000/svg">
<path d="M45.1558 54.0905C43.5489 54.6788 41.8115 54.9996 39.9998 54.9996C31.7147 54.9996 25 48.2849 25 39.9998C25 31.7173 31.7147 25 39.9998 25C48.2823 25 54.9996 31.7173 54.9996 39.9998" stroke="#73CDB5" stroke-linecap="round" stroke-linejoin="round"/>
<path fill-rule="evenodd" clip-rule="evenodd" d="M55 45.7835C55 48.6918 49.8276 54.9997 49.8276 54.9997C49.8276 54.9997 44.6553 48.6918 44.6553 45.7835C44.6553 42.8751 46.9699 40.5171 49.8276 40.5171C52.6841 40.5171 55 42.8751 55 45.7835V45.7835Z" stroke="#73CDB5" stroke-linecap="round" stroke-linejoin="round"/>
<path fill-rule="evenodd" clip-rule="evenodd" d="M51.8967 45.6894C51.8967 46.8329 50.9698 47.7584 49.8277 47.7584C48.6843 47.7584 47.7588 46.8329 47.7588 45.6894C47.7588 44.546 48.6843 43.6205 49.8277 43.6205C50.9698 43.6205 51.8967 44.546 51.8967 45.6894V45.6894Z" stroke="#73CDB5" stroke-linecap="round" stroke-linejoin="round"/>
<path d="M35.8037 47.7583V44.4668L29.1377 39.2004L32.1401 34.5923H39.8033V30.6425L37.8035 29.3259L43.6203 26.0344" stroke="#73CDB5" stroke-linecap="round" stroke-linejoin="round"/>
<path d="M50.8624 30.1724L48.4505 34.2046H46.0358L43.6211 36.3792" stroke="#73CDB5" stroke-linecap="round" stroke-linejoin="round"/>
<path d="M119.5 43V54" stroke="#AA5485" stroke-linejoin="round"/>
<path d="M116 54H123" stroke="#AA5485" stroke-linecap="round" stroke-linejoin="round"/>
<path fill-rule="evenodd" clip-rule="evenodd" d="M113 34.6429L114 25H125L126 34.6429C126 39.2586 123.09 43 119.5 43C115.91 43 113 39.2586 113 34.6429V34.6429Z" stroke="#AA5485" stroke-linecap="round" stroke-linejoin="round"/>
<path fill-rule="evenodd" clip-rule="evenodd" d="M113.2 33L125.706 33L126 34.875C126 39.3625 123.09 43 119.5 43C115.91 43 113 39.3625 113 34.875L113.2 33Z" fill="#E6688E" stroke="#AA5485" stroke-linecap="round" stroke-linejoin="round"/>
<path d="M113 33H126" stroke="#AA5485" stroke-linejoin="round"/>
<path d="M200.125 42.5V53.75" stroke="#AA5485" stroke-linejoin="round"/>
<path d="M196.375 53.75H203.875" stroke="#AA5485" stroke-linecap="round" stroke-linejoin="round"/>
<path fill-rule="evenodd" clip-rule="evenodd" d="M192 34.375L193.25 25H207L208.25 34.375C208.25 38.8625 204.613 42.5 200.125 42.5C195.637 42.5 192 38.8625 192 34.375V34.375Z" stroke="#AA5485" stroke-linecap="round" stroke-linejoin="round"/>
<path fill-rule="evenodd" clip-rule="evenodd" d="M192.25 32.5L207.883 32.5L208.25 34.375C208.25 38.8625 204.613 42.5 200.125 42.5C195.637 42.5 192 38.8625 192 34.375L192.25 32.5Z" fill="#F9ECBB" stroke="#AA5485" stroke-linecap="round" stroke-linejoin="round"/>
<path d="M192.25 32.5H207.883" stroke="#AA5485" stroke-linejoin="round"/>
<path d="M40.125 122.5V133.75" stroke="#AA5485" stroke-linejoin="round"/>
<path d="M36.375 133.75H43.875" stroke="#AA5485" stroke-linecap="round" stroke-linejoin="round"/>
<path fill-rule="evenodd" clip-rule="evenodd" d="M32 114.375L33.25 105H47L48.25 114.375C48.25 118.863 44.6125 122.5 40.125 122.5C35.6375 122.5 32 118.863 32 114.375V114.375Z" stroke="#AA5485" stroke-linecap="round" stroke-linejoin="round"/>
<path fill-rule="evenodd" clip-rule="evenodd" d="M32.2503 112.5L47.8827 112.5L48.25 114.375C48.25 118.863 44.6125 122.5 40.125 122.5C35.6375 122.5 32 118.863 32 114.375L32.2503 112.5Z" fill="#FFA58B" stroke="#AA5485" stroke-linecap="round" stroke-linejoin="round"/>
<path d="M32.25 112.5H47.8825" stroke="#AA5485" stroke-linejoin="round"/>
<path d="M129.192 125.355L132.096 132.129" stroke="#AA5485" stroke-linejoin="round"/>
<path d="M134.999 131.161L129.193 133.097" stroke="#AA5485" stroke-linecap="round" stroke-linejoin="round"/>
<path fill-rule="evenodd" clip-rule="evenodd" d="M120.427 114.756C121.242 117.294 122.871 122.371 122.871 122.371C123.912 124.866 126.736 126.024 129.178 124.959C131.618 123.893 132.751 121.005 131.708 118.51C131.708 118.51 129.403 114.094 128.25 111.887C128.225 112.774 120.483 115.677 120.427 114.756Z" fill="#F9ECBB"/>
<path d="M131.708 118.51L125.176 106L118.547 108.897L122.871 122.371C123.912 124.866 126.736 126.024 129.178 124.959C131.618 123.893 132.751 121.005 131.708 118.51" stroke="#AA5485" stroke-linecap="round" stroke-linejoin="round"/>
<path fill-rule="evenodd" clip-rule="evenodd" d="M128.709 117.613C128.897 117.613 129.076 117.723 129.154 117.906C129.259 118.153 129.146 118.436 128.899 118.542C128.838 118.567 128.773 118.581 128.71 118.581C128.523 118.581 128.344 118.47 128.264 118.286C128.161 118.042 128.274 117.756 128.52 117.652C128.582 117.625 128.646 117.613 128.709 117.613" fill="#F7B500"/>
<path fill-rule="evenodd" clip-rule="evenodd" d="M125.804 114.71C125.992 114.71 126.172 114.82 126.25 115.004C126.355 115.25 126.241 115.533 125.995 115.639C125.933 115.665 125.868 115.677 125.805 115.677C125.618 115.677 125.439 115.567 125.36 115.383C125.256 115.138 125.369 114.853 125.616 114.748C125.677 114.722 125.741 114.71 125.804 114.71" fill="#F7B500"/>
<path fill-rule="evenodd" clip-rule="evenodd" d="M128.71 121.484C128.897 121.484 129.076 121.594 129.154 121.777C129.259 122.024 129.146 122.308 128.9 122.413C128.838 122.439 128.773 122.452 128.709 122.452C128.523 122.452 128.343 122.341 128.265 122.158C128.16 121.912 128.274 121.628 128.52 121.524C128.582 121.496 128.646 121.484 128.71 121.484" fill="#F7B500"/>
<path fill-rule="evenodd" clip-rule="evenodd" d="M125.805 120.516C125.992 120.516 126.171 120.626 126.25 120.81C126.355 121.056 126.241 121.341 125.995 121.445C125.933 121.471 125.868 121.484 125.806 121.484C125.618 121.484 125.439 121.375 125.36 121.19C125.256 120.945 125.369 120.66 125.616 120.555C125.677 120.529 125.742 120.516 125.805 120.516" fill="#F7B500"/>
<path fill-rule="evenodd" clip-rule="evenodd" d="M122.901 117.613C123.09 117.613 123.269 117.723 123.347 117.907C123.452 118.152 123.337 118.437 123.092 118.541C123.031 118.567 122.966 118.581 122.902 118.581C122.714 118.581 122.535 118.47 122.457 118.287C122.352 118.042 122.466 117.757 122.712 117.653C122.773 117.626 122.838 117.613 122.901 117.613" fill="#F7B500"/>
<path d="M128.225 112.774L120.483 115.677" stroke="#AA5485" stroke-linejoin="round"/>
<path d="M110.807 125.355L107.903 132.129" stroke="#AA5485" stroke-linejoin="round"/>
<path d="M105 131.161L110.806 133.097" stroke="#AA5485" stroke-linecap="round" stroke-linejoin="round"/>
<path fill-rule="evenodd" clip-rule="evenodd" d="M108.291 118.51L114.823 106L121.452 108.897L117.128 122.371C116.087 124.866 113.263 126.024 110.821 124.959C108.381 123.893 107.248 121.005 108.291 118.51V118.51Z" fill="white" stroke="#AA5485" stroke-linecap="round" stroke-linejoin="round"/>
<path fill-rule="evenodd" clip-rule="evenodd" d="M119.323 115.484C118.508 118.022 117.128 122.371 117.128 122.371C116.087 124.866 113.263 126.024 110.821 124.959C108.381 123.893 107.248 121.005 108.291 118.51L111.387 112.774" fill="#F9ECBB"/>
<path d="M119.323 115.484C118.508 118.022 117.128 122.371 117.128 122.371C116.087 124.866 113.263 126.024 110.821 124.959C108.381 123.893 107.248 121.005 108.291 118.51L111.387 112.774" stroke="#AA5485" stroke-linecap="round" stroke-linejoin="round"/>
<path fill-rule="evenodd" clip-rule="evenodd" d="M111.29 117.613C111.102 117.613 110.923 117.723 110.845 117.906C110.74 118.153 110.853 118.436 111.1 118.542C111.161 118.567 111.226 118.581 111.289 118.581C111.476 118.581 111.656 118.47 111.735 118.286C111.838 118.042 111.725 117.756 111.479 117.652C111.417 117.625 111.353 117.613 111.29 117.613" fill="#F7B500"/>
<path fill-rule="evenodd" clip-rule="evenodd" d="M114.195 114.71C114.007 114.71 113.827 114.82 113.749 115.004C113.644 115.25 113.758 115.533 114.004 115.639C114.066 115.665 114.131 115.677 114.194 115.677C114.381 115.677 114.56 115.567 114.639 115.383C114.743 115.138 114.63 114.853 114.383 114.748C114.322 114.722 114.258 114.71 114.195 114.71" fill="#F7B500"/>
<path fill-rule="evenodd" clip-rule="evenodd" d="M111.289 121.484C111.102 121.484 110.923 121.594 110.845 121.777C110.74 122.024 110.853 122.308 111.099 122.413C111.161 122.439 111.226 122.452 111.29 122.452C111.476 122.452 111.656 122.341 111.734 122.158C111.839 121.912 111.725 121.628 111.479 121.524C111.417 121.496 111.353 121.484 111.289 121.484" fill="#F7B500"/>
<path fill-rule="evenodd" clip-rule="evenodd" d="M114.194 120.516C114.007 120.516 113.828 120.626 113.749 120.81C113.644 121.056 113.758 121.341 114.004 121.445C114.066 121.471 114.131 121.484 114.193 121.484C114.381 121.484 114.56 121.375 114.639 121.19C114.743 120.945 114.63 120.66 114.383 120.555C114.322 120.529 114.257 120.516 114.194 120.516" fill="#F7B500"/>
<path fill-rule="evenodd" clip-rule="evenodd" d="M117.098 117.613C116.909 117.613 116.73 117.723 116.652 117.907C116.548 118.152 116.662 118.437 116.907 118.541C116.968 118.567 117.033 118.581 117.097 118.581C117.285 118.581 117.464 118.47 117.542 118.287C117.647 118.042 117.533 117.757 117.287 117.653C117.226 117.626 117.161 117.613 117.098 117.613" fill="#F7B500"/>
<path d="M111.774 112.774L119.516 115.677" stroke="#AA5485" stroke-linejoin="round"/>
<path fill-rule="evenodd" clip-rule="evenodd" d="M215 120C215 128.284 208.286 135 200 135C191.716 135 185 128.284 185 120C185 111.716 191.716 105 200 105C208.286 105 215 111.716 215 120V120Z" stroke="#99C073" stroke-linecap="round" stroke-linejoin="round"/>
<path d="M200.071 126V128" stroke="#99C073" stroke-linecap="round" stroke-linejoin="round"/>
<path d="M200.071 112V114" stroke="#99C073" stroke-linecap="round" stroke-linejoin="round"/>
<path d="M197.071 123C197.071 124.656 198.415 126 200.071 126C201.727 126 203.071 124.656 203.071 123C203.071 121.342 201.727 120 200.071 120C198.415 120 197.071 118.656 197.071 117C197.071 115.342 198.415 114 200.071 114C201.727 114 203.071 115.342 203.071 117" stroke="#99C073" stroke-linecap="round" stroke-linejoin="round"/>
</svg>
